 <svg
    xmlns="http://www.w3.org/2000/svg"
    x="0px"
    y="0px"
    width="30"
    height="30"
    viewBox="0 0 24 24"
  >
    <path
      d="M12,21c-1.466,0-2.095-0.453-2.788-0.926c-1.211-0.891-3.085,1.29-4.449-1.799	c0,0-2.763-0.04-2.763-1.644c0-1.898,3.506-0.839,4.418-3.835c0,0-2.374-0.461-2.374-1.82S6.37,9.632,6.37,9.632	C6.37,7.934,6.575,3,12,3s5.63,4.934,5.63,6.632c0,0,2.326-0.016,2.326,1.344s-2.374,1.82-2.374,1.82	C18.494,15.792,22,14.733,22,16.631c0,1.604-2.763,1.644-2.763,1.644c-1.364,3.089-3.239,0.908-4.449,1.799	C14.095,20.547,13.466,21,12,21z"
      fill="white"
    />
    <path d="M12,22c-1.74,0-2.57-0.566-3.304-1.066c-0.183-0.133-0.542-0.076-0.858-0.025c-0.97,0.15-2.553,0.396-3.715-1.676	C2.748,19.065,1,18.392,1,16.631c0-1.582,1.378-2.053,2.289-2.364c0.738-0.252,1.298-0.473,1.688-0.887	c-0.896-0.394-1.932-1.125-1.932-2.404c0-0.551,0.207-1.048,0.599-1.437c0.487-0.485,1.181-0.712,1.754-0.817	C5.762,2.899,9.642,2,12,2s6.238,0.899,6.603,6.722c0.573,0.105,1.267,0.332,1.754,0.817c0.392,0.389,0.599,0.886,0.599,1.437	c0,1.279-1.036,2.011-1.932,2.404c0.39,0.414,0.949,0.635,1.688,0.887C21.622,14.578,23,15.049,23,16.631	c0,1.761-1.748,2.435-3.123,2.602c-1.164,2.076-2.746,1.827-3.715,1.676c-0.317-0.05-0.677-0.104-0.781-0.028	C14.57,21.434,13.74,22,12,22z M8.42,18.843c0.45,0,0.933,0.094,1.385,0.426C10.458,19.714,10.877,20,12,20s1.542-0.286,2.176-0.719	c0.795-0.582,1.66-0.447,2.295-0.35c0.919,0.145,1.295,0.201,1.852-1.061c0.158-0.357,0.51-0.59,0.9-0.596	C19.937,17.261,21,16.983,21,16.631c-0.09-0.183-0.62-0.363-0.937-0.472c-1.112-0.38-2.794-0.955-3.438-3.072	c-0.082-0.271-0.046-0.564,0.101-0.807c0.146-0.243,0.388-0.412,0.666-0.466c0.759-0.151,1.563-0.583,1.563-0.839	c-0.104-0.168-0.783-0.344-1.303-0.344c-0.009-0.001-0.017-0.001-0.022,0c-0.264,0-0.518-0.104-0.705-0.29	c-0.188-0.188-0.295-0.443-0.295-0.71C16.63,5.842,15.115,4,12,4S7.37,5.842,7.37,9.632c0,0.267-0.106,0.521-0.295,0.71	c-0.188,0.186-0.441,0.29-0.705,0.29c-0.002,0-0.005,0-0.007,0c-0.581,0-1.225,0.189-1.322,0.339	c0.004,0.28,0.885,0.711,1.567,0.844c0.278,0.054,0.521,0.223,0.666,0.466c0.146,0.242,0.183,0.536,0.101,0.807	c-0.645,2.117-2.326,2.692-3.438,3.072c-0.316,0.108-0.847,0.289-0.934,0.41C3,16.983,4.063,17.261,4.78,17.275	c0.389,0.008,0.74,0.24,0.897,0.596c0.557,1.262,0.934,1.205,1.852,1.061C7.794,18.891,8.099,18.843,8.42,18.843z" />
  </svg>
